# xmcd
#
# Track frame offsets:
# 187
# 21032
# 45520
# 61582
# 95407
# 108970
# 130635
# 160125
# 175350
# 213485
# 232117
#
# Disc length: 3323 seconds
#
#
# Revision: 4
# Processed by: cddbd v1.5.2PL0 Copyright (c) Steve Scherf et al.
# Submitted via: FreeRIP 2.96 
#
DISCID=870cf90b
DTITLE=Joe Beard with Ronnie Earl and the Broadcasters - Blues Union
DYEAR=1996
DGENRE=Blues
TTITLE0=Lay for Me Sometime
TTITLE1=Just to be with You
TTITLE2=I Count the Days You're Gone
TTITLE3=Sinners Prayer
TTITLE4=Sally Mae
TTITLE5=Please Don't Light the Flame
TTITLE6=Feets Out in the Hall
TTITLE7=Think
TTITLE8=Telling It like It Is
TTITLE9=Don't Know Why
TTITLE10=Late in the Evening
EXTD=YEAR: 1996
EXTT0=
EXTT1=
EXTT2=
EXTT3=
EXTT4=
EXTT5=
EXTT6=
EXTT7=
EXTT8=
EXTT9=
EXTT10=
PLAYORDER=
